#define iot_Seta_width 128
#define iot_Seta_height 64
static unsigned char iot_Seta_bits[] = {
   0x00, 0x00, 0x00, 0x00, 0x00, 0x00, 0x00, 0xf8, 0x3f, 0x00, 0x00, 0x00,
   0x00, 0x00, 0x00, 0x00, 0x00, 0x00, 0x00, 0x00, 0x00, 0x00, 0x00, 0xff,
   0xff, 0x03, 0x00, 0x00, 0x00, 0x00, 0x00, 0x00, 0x00, 0x00, 0x00, 0x00,
   0x00, 0x00, 0xe0, 0xff, 0xff, 0x1f, 0x00, 0x00, 0x00, 0x00, 0x00, 0x00,
   0x00, 0x00, 0x00, 0x00, 0x00, 0x00, 0xf8, 0xff, 0xff, 0x7f, 0x00, 0x00,
   0x00, 0x00, 0x00, 0x00, 0x00, 0x00, 0x00, 0x00, 0x00, 0x00, 0xfe, 0xff,
   0xff, 0xff, 0x01, 0x00, 0x00, 0x00, 0x00, 0x00, 0x00, 0x00, 0x00, 0x00,
   0x00, 0x80, 0xff, 0x1f, 0xf0, 0xff, 0x03, 0x00, 0x00, 0x00, 0x00, 0x00,
   0x00, 0x00, 0x00, 0x00, 0x00, 0xc0, 0xff, 0x01, 0x00, 0xff, 0x0f, 0x00,
   0x00, 0x00, 0x00, 0x00, 0x00, 0x00, 0x00, 0x00, 0x00, 0xe0, 0x3f, 0x00,
   0x00, 0xf8, 0x1f, 0x00, 0x00, 0x00, 0x00, 0x00, 0x00, 0x00, 0x00, 0x00,
   0x00, 0xff, 0x0f, 0x00, 0x00, 0xe0, 0x3f, 0x00, 0x00, 0x00, 0x00, 0x00,
   0x00, 0x00, 0x00, 0x00, 0xe0, 0xff, 0x07, 0x00, 0x00, 0xc0, 0x7f, 0x00,
   0x00, 0x00, 0x00, 0x00, 0x00, 0x00, 0x00, 0x00, 0xf8, 0xff, 0x01, 0x00,
   0x00, 0x00, 0xff, 0x00, 0x00, 0x00, 0x00, 0x00, 0x00, 0x00, 0x00, 0x00,
   0xfc, 0xff, 0x00, 0x00, 0x00, 0x00, 0xfe, 0x00, 0x00, 0x00, 0x00, 0x00,
   0x00, 0x00, 0x00, 0x00, 0xfc, 0x7f, 0x00, 0x00, 0x00, 0x00, 0xfc, 0x01,
   0x00, 0x00, 0x00, 0x00, 0x00, 0x00, 0x00, 0x00, 0xff, 0x31, 0x00, 0x00,
   0x00, 0x00, 0xf8, 0x03, 0x00, 0x00, 0x00, 0x00, 0x00, 0x00, 0x00, 0x80,
   0x7f, 0x00, 0x00, 0x00, 0x00, 0x00, 0xf0, 0x03, 0x00, 0x00, 0x00, 0x00,
   0x00, 0x00, 0x00, 0x80, 0x1f, 0x00, 0x00, 0x00, 0x00, 0x00, 0xf0, 0x07,
   0x00, 0x00, 0x00, 0x00, 0x00, 0x00, 0x00, 0x80, 0x1f, 0x00, 0x00, 0x00,
   0x00, 0x00, 0xe0, 0x1f, 0x00, 0x00, 0x00, 0x00, 0x00, 0x00, 0x00, 0xc0,
   0x0f, 0x00, 0x00, 0x00, 0x00, 0x00, 0xe0, 0xff, 0x01, 0x00, 0x00, 0x00,
   0x00, 0x00, 0x00, 0xc0, 0x0f, 0x00, 0x00, 0xf8, 0x07, 0x00, 0xe0, 0xff,
   0x07, 0x00, 0x00, 0x00, 0x00, 0x00, 0x00, 0xf0, 0x0f, 0xf8, 0x03, 0xfe,
   0x1f, 0xf0, 0xff, 0xff, 0x1f, 0x00, 0x00, 0x00, 0x00, 0x00, 0x00, 0xf8,
   0x0f, 0xf8, 0x83, 0xff, 0x3f, 0xf0, 0xff, 0xff, 0x7f, 0x00, 0x00, 0x00,
   0x00, 0x00, 0x00, 0xfc, 0x0f, 0xf8, 0xc3, 0xff, 0xff, 0xf0, 0xff, 0xff,
   0xff, 0x00, 0x00, 0x00, 0x00, 0x00, 0x00, 0xfe, 0x03, 0xf8, 0xe3, 0xff,
   0xff, 0xf0, 0xff, 0x1f, 0xff, 0x01, 0x00, 0x00, 0x00, 0x00, 0x00, 0xff,
   0x00, 0xf8, 0xe3, 0x3f, 0xff, 0xf1, 0xff, 0x1f, 0xfe, 0x01, 0x00, 0x00,
   0x00, 0x00, 0x80, 0x3f, 0x00, 0xf8, 0xf3, 0x0f, 0xfc, 0x03, 0x7e, 0x00,
   0xf8, 0x03, 0x00, 0x00, 0x00, 0x00, 0x80, 0x1f, 0x00, 0xf8, 0xf3, 0x07,
   0xf8, 0x03, 0x7e, 0x00, 0xf0, 0x07, 0x00, 0x00, 0x00, 0x00, 0xc0, 0x1f,
   0x00, 0xf8, 0xf3, 0x03, 0xf0, 0x03, 0x7e, 0x00, 0xe0, 0x07, 0x00, 0x00,
   0x00, 0x00, 0xc0, 0x0f, 0x00, 0xf8, 0xf3, 0x03, 0xf0, 0x03, 0x7e, 0x00,
   0xe0, 0x0f, 0x00, 0x00, 0x00, 0x00, 0xe0, 0x0f, 0x00, 0xf8, 0xf3, 0x03,
   0xf0, 0x03, 0x7e, 0x00, 0xc0, 0x0f, 0x00, 0x00, 0x00, 0x00, 0xe0, 0x07,
   0x00, 0xf8, 0xf3, 0x03, 0xf8, 0x03, 0x7e, 0x00, 0xc0, 0x0f, 0x00, 0x00,
   0x00, 0x00, 0xe0, 0x07, 0x00, 0xf8, 0xf3, 0x07, 0xf8, 0x03, 0x7e, 0x00,
   0xc0, 0x1f, 0x00, 0x00, 0x00, 0x00, 0xe0, 0x07, 0x00, 0xf8, 0xe3, 0x1f,
   0xfe, 0x01, 0x7e, 0x00, 0xc0, 0x1f, 0x00, 0x00, 0x00, 0x00, 0xe0, 0x07,
   0x00, 0xf8, 0xe3, 0xff, 0xff, 0x01, 0x7e, 0x00, 0xc0, 0x1f, 0x00, 0x00,
   0x00, 0x00, 0xe0, 0x07, 0x00, 0xf8, 0xc3, 0xff, 0xff, 0x00, 0x7e, 0x00,
   0xc0, 0x1f, 0x00, 0x00, 0x00, 0x00, 0xe0, 0x07, 0x00, 0xf8, 0x83, 0xff,
   0x7f, 0x00, 0x7e, 0x00, 0xc0, 0x0f, 0x00, 0x00, 0x00, 0x00, 0xe0, 0x07,
   0x00, 0xf8, 0x03, 0xfe, 0x3f, 0x00, 0x7e, 0x00, 0xc0, 0x0f, 0x00, 0x00,
   0x00, 0x00, 0xc0, 0x0f, 0x00, 0x00, 0x00, 0xf8, 0x0f, 0x00, 0x54, 0x00,
   0xe0, 0x0f, 0x00, 0x00, 0x00, 0x00, 0xc0, 0x1f, 0x00, 0x00, 0x00, 0xc0,
   0x0f, 0x00, 0x00, 0x00, 0xe0, 0x07, 0x00, 0x00, 0x00, 0x00, 0xc0, 0x1f,
   0x00, 0x00, 0x00, 0xc0, 0x0f, 0x00, 0x00, 0x00, 0xf0, 0x07, 0x00, 0x00,
   0x00, 0x00, 0x80, 0x3f, 0x00, 0x00, 0x00, 0xc0, 0x0f, 0x00, 0x00, 0x00,
   0xf8, 0x03, 0x00, 0x00, 0x00, 0x00, 0x00, 0xff, 0x00, 0x00, 0x00, 0xc0,
   0x0f, 0x00, 0x00, 0x00, 0xfc, 0x03, 0x00, 0x00, 0x00, 0x00, 0x00, 0xfe,
   0x01, 0x00, 0x00, 0xc0, 0x0f, 0x00, 0x00, 0x00, 0xff, 0x01, 0x00, 0x00,
   0x00, 0x00, 0x00, 0xfe, 0x0f, 0x00, 0x00, 0xc0, 0x0f, 0x00, 0x00, 0xe0,
   0xff, 0x00, 0x00, 0x00, 0x00, 0x00, 0x00, 0xf8, 0xff, 0xff, 0x7f, 0xc0,
   0x0f, 0xfc, 0xff, 0xff, 0x7f, 0x00, 0x00, 0x00, 0x00, 0x00, 0x00, 0xf0,
   0xff, 0xff, 0x7f, 0xc0, 0x0f, 0xfc, 0xff, 0xff, 0x1f, 0x00, 0x00, 0x00,
   0x00, 0x00, 0x00, 0xc0, 0xff, 0xff, 0x7f, 0xc0, 0x0f, 0xfc, 0xff, 0xff,
   0x0f, 0x00, 0x00, 0x00, 0x00, 0x00, 0x00, 0x00, 0xff, 0xff, 0x7f, 0xc0,
   0x0f, 0xfc, 0xff, 0xff, 0x01, 0x00, 0x00, 0x00, 0x00, 0x00, 0x00, 0x00,
   0xf8, 0xff, 0x7f, 0xc0, 0x0f, 0xfc, 0xff, 0x3f, 0x00, 0x00, 0x00, 0x00,
   0x00, 0x00, 0x00, 0x00, 0x00, 0x00, 0x00, 0xc0, 0x0f, 0x00, 0x00, 0x00,
   0x00, 0x00, 0x00, 0x00, 0x00, 0x00, 0x00, 0x00, 0x00, 0x00, 0x00, 0xc0,
   0x0f, 0x00, 0x00, 0x00, 0x00, 0x00, 0x00, 0x00, 0x00, 0x00, 0x00, 0x00,
   0x00, 0x00, 0x00, 0xc0, 0x0f, 0x00, 0x00, 0x00, 0x00, 0x00, 0x00, 0x00,
   0x00, 0x00, 0x00, 0x00, 0x00, 0x00, 0x00, 0xc0, 0x0f, 0x00, 0x00, 0x00,
   0x00, 0x00, 0x00, 0x00, 0x00, 0x00, 0x00, 0x00, 0x00, 0x00, 0x00, 0xc0,
   0x07, 0x00, 0x00, 0x00, 0x00, 0x00, 0x00, 0x00, 0x00, 0x00, 0x00, 0x00,
   0x00, 0x00, 0x00, 0xe0, 0x0f, 0x00, 0x00, 0x00, 0x00, 0x00, 0x00, 0x00,
   0x00, 0x00, 0x00, 0x00, 0x00, 0x00, 0xe0, 0xff, 0xff, 0x0f, 0x00, 0x00,
   0x00, 0x00, 0x00, 0x00, 0x00, 0x00, 0x00, 0x00, 0x00, 0x00, 0x80, 0xff,
   0xff, 0x07, 0x00, 0x00, 0x00, 0x00, 0x00, 0x00, 0x00, 0x00, 0x00, 0x00,
   0x00, 0x00, 0x00, 0xff, 0xff, 0x01, 0x00, 0x00, 0x00, 0x00, 0x00, 0x00,
   0x00, 0x00, 0x00, 0x00, 0x00, 0x00, 0x00, 0xfe, 0xff, 0x00, 0x00, 0x00,
   0x00, 0x00, 0x00, 0x00, 0x00, 0x00, 0x00, 0x00, 0x00, 0x00, 0x00, 0xfc,
   0x7f, 0x00, 0x00, 0x00, 0x00, 0x00, 0x00, 0x00, 0x00, 0x00, 0x00, 0x00,
   0x00, 0x00, 0x00, 0xf8, 0x3f, 0x00, 0x00, 0x00, 0x00, 0x00, 0x00, 0x00,
   0x00, 0x00, 0x00, 0x00, 0x00, 0x00, 0x00, 0xe0, 0x1f, 0x00, 0x00, 0x00,
   0x00, 0x00, 0x00, 0x00, 0x00, 0x00, 0x00, 0x00, 0x00, 0x00, 0x00, 0xc0,
   0x07, 0x00, 0x00, 0x00, 0x00, 0x00, 0x00, 0x00, 0x00, 0x00, 0x00, 0x00,
   0x00, 0x00, 0x00, 0x80, 0x03, 0x00, 0x00, 0x00, 0x00, 0x00, 0x00, 0x00,
   0x00, 0x00, 0x00, 0x00, 0x00, 0x00, 0x00, 0x00, 0x01, 0x00, 0x00, 0x00,
   0x00, 0x00, 0x00, 0x00 };
