#define nuvemMQTT_width 128
#define nuvemMQTT_height 64
static unsigned char nuvemMQTT_bits[] = {
   0x00, 0x00, 0x00, 0x00, 0x00, 0x00, 0x00, 0x00, 0xfe, 0x3f, 0x00, 0x00,
   0x00, 0x00, 0x00, 0x00, 0x00, 0x00, 0x00, 0x00, 0x00, 0x00, 0x00, 0xe0,
   0xff, 0xff, 0x03, 0x00, 0x00, 0x00, 0x00, 0x00, 0x00, 0x00, 0x00, 0x00,
   0x00, 0x00, 0x00, 0xfc, 0x00, 0x80, 0x1f, 0x00, 0x00, 0x00, 0x00, 0x00,
   0x00, 0x00, 0x00, 0x00, 0x00, 0x00, 0x80, 0x0f, 0x00, 0x00, 0xf8, 0x00,
   0x00, 0x00, 0x00, 0x00, 0x00, 0x00, 0x00, 0x00, 0x00, 0x00, 0xe0, 0x01,
   0x00, 0x00, 0xc0, 0x03, 0x00, 0x00, 0x00, 0x00, 0x00, 0x00, 0x00, 0x00,
   0x00, 0x00, 0x70, 0x00, 0x00, 0x00, 0x00, 0x07, 0x00, 0x00, 0x00, 0x00,
   0x00, 0x00, 0x00, 0x00, 0x00, 0x00, 0x1c, 0x00, 0xc0, 0x3f, 0x00, 0x1c,
   0x00, 0x00, 0x00, 0x00, 0x00, 0x00, 0x00, 0x00, 0x00, 0x00, 0x0e, 0x00,
   0x00, 0xf0, 0x03, 0x38, 0x00, 0x00, 0x00, 0x00, 0x00, 0x00, 0x00, 0x00,
   0x00, 0x00, 0x07, 0x00, 0x00, 0x00, 0x0f, 0x70, 0x00, 0x00, 0x00, 0x00,
   0x00, 0x00, 0x00, 0x00, 0x80, 0xff, 0x01, 0x00, 0x00, 0x00, 0x3c, 0xe0,
   0x00, 0x00, 0x00, 0x00, 0x00, 0x00, 0x00, 0x00, 0xf8, 0xff, 0x01, 0x00,
   0x00, 0x00, 0x70, 0xc0, 0x01, 0x00, 0x00, 0x00, 0x00, 0x00, 0x00, 0x00,
   0x1e, 0x00, 0x00, 0x00, 0x00, 0x00, 0xe0, 0x80, 0x03, 0x00, 0x00, 0x00,
   0x00, 0x00, 0x00, 0x00, 0x07, 0x00, 0x00, 0x00, 0x00, 0x00, 0x00, 0x00,
   0x07, 0x00, 0x00, 0x00, 0x00, 0x00, 0x00, 0x80, 0x03, 0x00, 0x00, 0x00,
   0x00, 0x00, 0x00, 0x00, 0x07, 0x00, 0x00, 0x00, 0x00, 0x00, 0x00, 0xc0,
   0x01, 0x00, 0x00, 0x00, 0x00, 0x00, 0x00, 0x06, 0x0e, 0x00, 0x00, 0x00,
   0x00, 0x00, 0x00, 0xc0, 0x00, 0x00, 0x00, 0x00, 0x00, 0x00, 0x00, 0x06,
   0x0e, 0x00, 0x00, 0x00, 0x00, 0x00, 0x00, 0xf0, 0x00, 0x00, 0x00, 0x00,
   0x00, 0x00, 0x00, 0x0e, 0x0c, 0x00, 0x00, 0x00, 0x00, 0x00, 0x00, 0x3f,
   0x00, 0x00, 0x00, 0x00, 0x00, 0x00, 0x00, 0x0c, 0x0c, 0x00, 0x00, 0x00,
   0x00, 0x00, 0xc0, 0x03, 0x00, 0x00, 0x00, 0x00, 0x00, 0x00, 0x00, 0x0c,
   0x1c, 0x00, 0x00, 0x00, 0x00, 0x00, 0xe0, 0x00, 0x00, 0x00, 0x00, 0x00,
   0x00, 0x00, 0x00, 0x0c, 0xfc, 0x00, 0x00, 0x00, 0x00, 0x00, 0x78, 0x00,
   0x00, 0x00, 0x00, 0x00, 0x00, 0x00, 0x00, 0x00, 0xc0, 0x03, 0x00, 0x00,
   0x00, 0x00, 0x1c, 0x00, 0x00, 0x00, 0x00, 0x00, 0x00, 0x00, 0x00, 0x00,
   0x00, 0x0f, 0x00, 0x00, 0x00, 0x00, 0x0c, 0x00, 0x00, 0x00, 0x00, 0x00,
   0x00, 0x00, 0x00, 0x00, 0x00, 0x1c, 0x00, 0x00, 0x00, 0x00, 0x0e, 0x00,
   0x00, 0x00, 0x00, 0x00, 0x00, 0x00, 0x00, 0x00, 0x00, 0x38, 0x00, 0x00,
   0x00, 0x00, 0x07, 0x00, 0x00, 0x38, 0x30, 0x78, 0xf8, 0xef, 0x3f, 0x00,
   0x00, 0x70, 0x00, 0x00, 0x00, 0x00, 0x07, 0x00, 0x00, 0x38, 0x38, 0x84,
   0x81, 0x01, 0x06, 0x00, 0x00, 0x60, 0x00, 0x00, 0x00, 0x00, 0x03, 0x00,
   0x00, 0x78, 0x38, 0x06, 0x83, 0x00, 0x06, 0x00, 0x00, 0xe0, 0x00, 0x00,
   0x00, 0x00, 0x03, 0x00, 0x00, 0x58, 0x3c, 0x02, 0x83, 0x00, 0x06, 0x00,
   0x00, 0xc0, 0x01, 0x00, 0x00, 0x00, 0x03, 0x00, 0x00, 0xd8, 0x24, 0x02,
   0x83, 0x00, 0x02, 0x00, 0x00, 0xc0, 0x00, 0x00, 0x00, 0x00, 0x07, 0x00,
   0x00, 0x98, 0x23, 0x06, 0x81, 0x00, 0x06, 0x00, 0x00, 0xc0, 0x01, 0x00,
   0x00, 0x00, 0x07, 0x00, 0x00, 0x18, 0x23, 0x8c, 0x81, 0x01, 0x06, 0x00,
   0x00, 0xc0, 0x00, 0x00, 0x00, 0x00, 0x06, 0x00, 0x00, 0x00, 0x00, 0xc0,
   0x01, 0x00, 0x00, 0x00, 0x00, 0xe0, 0x00, 0x00, 0x00, 0x00, 0x0e, 0x00,
   0x00, 0x00, 0x00, 0x00, 0x01, 0x00, 0x00, 0x00, 0x00, 0x60, 0x00, 0x00,
   0x00, 0x00, 0x1c, 0x00, 0x00, 0x00, 0x00, 0x00, 0x00, 0x00, 0x00, 0x00,
   0x00, 0x70, 0x00, 0x00, 0x00, 0x00, 0x38, 0x00, 0x00, 0x00, 0x00, 0x00,
   0x00, 0x00, 0x00, 0x00, 0x00, 0x38, 0x00, 0x00, 0x00, 0x00, 0xf0, 0x00,
   0x00, 0x00, 0x00, 0x00, 0x00, 0x00, 0x00, 0x00, 0x00, 0x1c, 0x00, 0x00,
   0x00, 0x00, 0xc0, 0x01, 0x00, 0x00, 0x00, 0x00, 0x00, 0x00, 0x00, 0x00,
   0x00, 0x07, 0x00, 0x00, 0x00, 0x00, 0x00, 0x0f, 0x00, 0x00, 0x00, 0x00,
   0x00, 0x00, 0x00, 0x00, 0xe0, 0x03, 0x00, 0x00, 0x00, 0x00, 0x00, 0xfc,
   0xff, 0xf0, 0xff, 0xe1, 0xff, 0xe1, 0xff, 0xc3, 0x7f, 0x00, 0x00, 0x00,
   0x00, 0x00, 0x00, 0x00, 0xff, 0xe0, 0xff, 0xe1, 0xff, 0xc3, 0xff, 0xc3,
   0x03, 0x00, 0x00, 0x00, 0x00, 0x00, 0x00, 0x00, 0xc0, 0x00, 0x80, 0x01,
   0x80, 0x01, 0x00, 0x03, 0x00, 0x00, 0x00, 0x00, 0x00, 0x00, 0x00, 0x00,
   0xc0, 0x00, 0xc0, 0x01, 0x80, 0x03, 0x00, 0x03, 0x00, 0x00, 0x00, 0x00,
   0x00, 0x00, 0x00, 0x00, 0xc0, 0x00, 0x80, 0x01, 0x80, 0x01, 0x00, 0x03,
   0x00, 0x00, 0x00, 0x00, 0x00, 0x00, 0x00, 0x00, 0xc0, 0x00, 0xc0, 0x01,
   0x80, 0x03, 0x00, 0x03, 0x00, 0x00, 0x00, 0x00, 0x00, 0x00, 0x00, 0x00,
   0xc0, 0x00, 0x80, 0x01, 0x80, 0x01, 0x00, 0x03, 0x00, 0x00, 0x00, 0x00,
   0x00, 0x00, 0x00, 0x00, 0xc0, 0x00, 0xc0, 0x01, 0x80, 0x03, 0x00, 0x03,
   0x00, 0x00, 0x00, 0x00, 0x00, 0x00, 0x00, 0x00, 0xc0, 0x00, 0x80, 0x01,
   0x80, 0x01, 0x00, 0x03, 0x00, 0x00, 0x00, 0x00, 0x00, 0x00, 0x00, 0x00,
   0xc0, 0x00, 0xc0, 0x01, 0x80, 0x03, 0x00, 0x03, 0x00, 0x00, 0x00, 0x00,
   0x00, 0x00, 0x00, 0x00, 0xc0, 0x00, 0x80, 0x01, 0x80, 0x01, 0x00, 0x03,
   0x00, 0x00, 0x00, 0x00, 0x00, 0x00, 0x00, 0xff, 0xc0, 0x00, 0xc0, 0x01,
   0x80, 0x03, 0x00, 0x03, 0xff, 0x00, 0x00, 0x00, 0x00, 0x00, 0x80, 0xc3,
   0xc1, 0x00, 0x80, 0x01, 0x80, 0x01, 0x00, 0x83, 0x83, 0x01, 0x00, 0x00,
   0x00, 0x00, 0xc0, 0x80, 0xc3, 0x00, 0xc0, 0x01, 0x80, 0x03, 0x00, 0xc3,
   0x01, 0x03, 0x00, 0x00, 0x00, 0x00, 0xc0, 0x00, 0xff, 0x00, 0x80, 0x01,
   0x80, 0x01, 0x00, 0xff, 0x00, 0x03, 0x00, 0x00, 0x00, 0x00, 0xc0, 0x00,
   0x57, 0x00, 0xc0, 0x01, 0x80, 0x03, 0x00, 0xea, 0x00, 0x03, 0x00, 0x00,
   0x00, 0x00, 0xc0, 0x81, 0x03, 0x00, 0x80, 0x01, 0x80, 0x01, 0x00, 0xc0,
   0x81, 0x03, 0x00, 0x00, 0x00, 0x00, 0x80, 0xf7, 0x01, 0x00, 0xc0, 0x01,
   0x80, 0x03, 0x00, 0x80, 0xf7, 0x01, 0x00, 0x00, 0x00, 0x00, 0x00, 0x7e,
   0x00, 0x00, 0xf8, 0x0f, 0xf0, 0x1f, 0x00, 0x00, 0x7e, 0x00, 0x00, 0x00,
   0x00, 0x00, 0x00, 0x00, 0x00, 0x00, 0x1c, 0x1c, 0x38, 0x38, 0x00, 0x00,
   0x00, 0x00, 0x00, 0x00, 0x00, 0x00, 0x00, 0x00, 0x00, 0x00, 0x0c, 0x38,
   0x1c, 0x30, 0x00, 0x00, 0x00, 0x00, 0x00, 0x00, 0x00, 0x00, 0x00, 0x00,
   0x00, 0x00, 0x0e, 0x30, 0x0c, 0x70, 0x00, 0x00, 0x00, 0x00, 0x00, 0x00,
   0x00, 0x00, 0x00, 0x00, 0x00, 0x00, 0x0c, 0x38, 0x1c, 0x30, 0x00, 0x00,
   0x00, 0x00, 0x00, 0x00, 0x00, 0x00, 0x00, 0x00, 0x00, 0x00, 0x1c, 0x1c,
   0x38, 0x38, 0x00, 0x00, 0x00, 0x00, 0x00, 0x00, 0x00, 0x00, 0x00, 0x00,
   0x00, 0x00, 0xf8, 0x0f, 0xf0, 0x1f, 0x00, 0x00, 0x00, 0x00, 0x00, 0x00,
   0x00, 0x00, 0x00, 0x00, 0x00, 0x00, 0xe0, 0x07, 0xe0, 0x07, 0x00, 0x00,
   0x00, 0x00, 0x00, 0x00 };
